<?xml version="1.0" standalone="no"?>
<!DOCTYPE svg PUBLIC "-//W3C//DTD SVG 20010904//EN"
 "http://www.w3.org/TR/2001/REC-SVG-20010904/DTD/svg10.dtd">
<svg version="1.0" xmlns="http://www.w3.org/2000/svg"
 width="100.000000pt" height="100.000000pt" viewBox="0 0 100.000000 100.000000"
 preserveAspectRatio="xMidYMid meet">
<metadata>
Created by potrace 1.14, written by Peter Selinger 2001-2017
</metadata>
<g transform="translate(0.000000,100.000000) scale(0.100000,-0.100000)"
fill="#000000" stroke="none">
<path d="M359 982 c-244 -64 -400 -316 -348 -564 34 -164 155 -301 317 -360
84 -31 235 -30 317 2 147 56 238 147 295 295 32 82 33 233 2 317 -88 243 -336
374 -583 310z m251 -157 c0 -15 54 -40 68 -31 5 3 16 -1 23 -10 11 -13 -2 -30
-92 -120 -57 -58 -114 -110 -127 -115 -30 -12 -38 -37 -19 -56 20 -20 42 -12
59 23 17 35 32 36 36 2 4 -35 -37 -78 -73 -78 -33 0 -75 42 -75 75 0 33 42 75
75 75 20 0 26 4 23 18 -8 45 -95 14 -123 -44 -31 -65 -1 -129 73 -155 42 -14
99 12 126 60 17 29 18 39 8 75 -10 39 -9 43 17 70 l29 29 18 -28 c10 -15 20
-53 22 -86 9 -118 -63 -200 -182 -207 -80 -5 -139 25 -179 90 -33 54 -39 136
-13 187 14 26 21 30 44 25 37 -8 75 23 75 60 l0 28 66 -5 c36 -3 77 -7 90 -9
39 -5 36 21 -3 37 -34 14 -203 20 -247 9 -17 -5 -43 -53 -37 -70 1 -5 -8 -31
-21 -57 -34 -70 -28 -169 15 -229 67 -96 177 -133 280 -93 135 51 192 206 125
335 l-22 43 30 30 29 30 31 -48 c35 -56 61 -157 41 -163 -46 -16 -64 -79 -33
-114 16 -18 16 -21 -1 -53 -10 -19 -29 -44 -42 -56 -13 -12 -24 -31 -24 -41 0
-25 -30 -36 -42 -15 -5 10 -16 17 -25 17 -11 0 -14 -6 -9 -27 5 -17 3 -29 -6
-34 -20 -13 -26 -11 -33 12 -9 28 -40 20 -40 -11 0 -18 -6 -26 -22 -28 -19 -3
-23 1 -23 22 0 32 -27 35 -32 3 -5 -34 -42 -30 -46 6 -4 32 -28 36 -37 6 -4
-13 -12 -18 -22 -15 -8 3 -19 6 -24 6 -6 0 -6 8 1 19 21 41 3 56 -31 25 -20
-18 -39 -11 -39 15 0 10 -7 24 -15 31 -10 8 -13 24 -9 53 5 34 2 46 -14 60
-11 10 -29 19 -41 20 -16 1 -22 10 -27 45 -15 99 21 203 94 275 68 67 128 91
229 93 46 0 86 3 89 7 9 9 34 -4 34 -18z m-230 -120 c18 -21 5 -47 -22 -43
-26 3 -37 36 -16 49 18 12 24 11 38 -6z m458 -251 c4 -27 -26 -40 -46 -20 -21
20 -8 48 20 44 14 -2 24 -11 26 -24z m-629 -78 c15 -18 3 -46 -20 -46 -22 0
-34 22 -25 45 7 19 30 19 45 1z"/>
</g>
</svg>
